<?xml version="1.0" encoding="UTF-8"?>
<svg width="17px" height="17px" viewBox="0 0 17 17" version="1.1" xmlns:xlink="http://www.w3.org/1999/xlink">
    <!-- Generator: Sketch 47.1 (45422) - http://www.bohemiancoding.com/sketch -->
    <title>videodetector</title>
    <desc>Created with Sketch.</desc>
    <defs></defs>
    <g id="Page-1" stroke="none" stroke-width="1" fill="none" fill-rule="evenodd">
        <g id="videodetector" fill-rule="nonzero" fill="#484848">
            <path d="M15,4 C12.8,0.2 7.9,-1.1 4,1.1 C0.2,3.3 -1.1,8.2 1.1,12 C3.3,15.9 8.2,17.2 12,15 C15.9,12.8 17.2,7.9 15,4 Z M11.2,13.6 C8.1,15.4 4.2,14.3 2.5,11.3 C0.7,8.2 1.8,4.3 4.8,2.6 C7.9,0.8 11.8,1.9 13.5,4.9 C15.3,7.9 14.3,11.8 11.2,13.6 Z M10.9,7.7 L6.7,5.3 C6.3,5 6,5.2 6,5.7 L6,10.5 C6,10.9 6.3,11.1 6.7,10.9 L10.9,8.5 C11.3,8.3 11.3,7.9 10.9,7.7 Z" id="Shape"></path>
        </g>
    </g>
</svg>