<?xml version="1.0" encoding="UTF-8"?>
<svg width="64px" height="64px" viewBox="0 0 64 64" version="1.1" xmlns="http://www.w3.org/2000/svg" xmlns:xlink="http://www.w3.org/1999/xlink">
    <!-- Generator: Sketch 63.1 (92452) - https://sketch.com -->
    <title>charts-icon</title>
    <desc>Created with Sketch.</desc>
    <g id="Page-1" stroke="none" stroke-width="1" fill="none" fill-rule="evenodd">
        <g id="Admin---Simplified---Drag`nDrop" transform="translate(-1213.000000, -408.000000)">
            <g id="Group-5">
                <g id="Basic-Usage" transform="translate(380.000000, 90.000000)">
                    <g id="Blocks">
                        <g id="Items">
                            <g id="Item" transform="translate(807.000000, 292.000000)">
                                <g id="image" transform="translate(10.000000, 10.000000)">
                                    <rect id="Mask" fill-opacity="0" fill="#FFFFFF" x="0" y="0" width="96" height="96"></rect>
                                    <g id="pie-chart" transform="translate(17.000000, 16.000000)">
                                        <g id="Group" transform="translate(36.000000, 1.000000)" fill-rule="nonzero">
                                            <rect id="Rectangle" fill="#E0B03B" x="0" y="21" width="26" height="4"></rect>
                                            <path d="M0,21 L26,21 C26,18.3782902 24.0768097,12.3114998 20.409103,7.97126843 C17.2499749,4.23287063 12.5876051,2.07886198 9.19042992,0.959959114 C8.38403837,0.694363798 7.14167965,0.374377427 5.46335377,0 L0,21 Z" id="Path" fill="#F0C419"></path>
                                        </g>
                                        <g id="Group" transform="translate(29.000000, 29.000000)" fill-rule="nonzero">
                                            <path d="M21,1.59559865e-14 L21,25 C25.9429556,19.7894888 29,12.5912013 29,4.64031336 L29,1.59559865e-14 L21,1.59559865e-14 Z" id="Path" fill="#673BE0"></path>
                                            <path d="M29,1.59872116e-14 L-1.27897692e-13,1.59872116e-14 L21,20.5031438 C26.2478042,15.1284807 29,8.20080749 29,1.59872116e-14 Z" id="Path" fill="#9267C9"></path>
                                        </g>
                                        <g id="Group">
                                            <polygon id="Rectangle" fill="#D1424D" points="36.5173974 0.825037943 38 5.4451152 31.8242536 29 26 29"></polygon>
                                            <path d="M36.5173974,0.825037943 C33.3499966,-0.0779123678 28.475552,-0.0101446701 28.038683,0.00936209771 C23.8582078,0.19602575 19.8956223,1.26613379 16.3368248,3.03473163 C14.1278267,4.1325264 12.0744028,5.49944007 10.2210112,7.09124017 C3.97437492,12.4562135 -1.02118703e-12,20.3757775 -1.02118703e-12,29.1564586 C-1.02118703e-12,45.1779592 13.232377,58 29.3562164,58 C37.4179162,58 44.7167255,54.7529566 50,49.5031438 L29.3562164,28.9901075 L36.5173974,0.825037943 Z" id="Path" fill="#FF6873" fill-rule="nonzero"></path>
                                        </g>
                                        <g id="yellow" transform="translate(0.000000, 29.000000)" fill-rule="nonzero">
                                            <path d="M29.3834631,-2.27373675e-13 L0,-2.27373675e-13 L0.38346312,4.52232185 L20.983566,25 C26.1959448,19.7161686 29.3834631,14.4309077 29.3834631,-2.27373675e-13 Z" id="Path" fill="#58A26A" transform="translate(14.691732, 12.500000) scale(-1, 1) translate(-14.691732, -12.500000) "></path>
                                            <path d="M29.3834631,-4.54747351e-13 L3.55271368e-15,-4.54747351e-13 L20.8893074,20.6387505 C26.1016862,15.4781739 29.3834631,7.87414852 29.3834631,-4.54747351e-13 Z" id="Path" fill="#71C285" transform="translate(14.691732, 10.319375) scale(-1, 1) translate(-14.691732, -10.319375) "></path>
                                        </g>
                                        <g id="Group-2" transform="translate(8.000000, 29.000000)" fill-rule="nonzero">
                                            <path d="M0,24.659061 C0.792229877,25.4769325 1.39920113,26.076929 1.82091375,26.4590502 C6.99477961,31.1471815 13.8399272,34 21.3464447,34 C29.4119604,34 36.7142247,30.325171 42,25 L42,20.5031438 L21.3834631,0 L0.494155679,20.6387505 L0,24.659061 Z" id="Path" fill="#005FAD"></path>
                                            <path d="M0.494155679,20.6387505 C1.54784723,21.6798245 2.19285105,22.2989714 2.42916713,22.4961912 C7.92931768,27.0863929 14.0861467,29 21.5981558,29 C29.5653747,29 36.778644,25.7511664 42,20.5031438 L21.3834631,4.79616347e-14 L0.494155679,20.6387505 Z" id="Path" fill="#0071CE"></path>
                                        </g>
                                    </g>
                                </g>
                            </g>
                        </g>
                    </g>
                </g>
            </g>
        </g>
    </g>
</svg>