<?xml version="1.0" encoding="UTF-8"?>
<svg width="64px" height="64px" viewBox="0 0 64 64" version="1.1" xmlns="http://www.w3.org/2000/svg" xmlns:xlink="http://www.w3.org/1999/xlink">
    <!-- Generator: Sketch 63.1 (92452) - https://sketch.com -->
    <title>content-icon</title>
    <desc>Created with Sketch.</desc>
    <g id="Page-1" stroke="none" stroke-width="1" fill="none" fill-rule="evenodd">
        <g id="Admin---Simplified---Drag`nDrop" transform="translate(-406.000000, -262.000000)" fill-rule="nonzero">
            <g id="Group-5">
                <g id="Basic-Usage" transform="translate(380.000000, 90.000000)">
                    <g id="Blocks">
                        <g id="Items">
                            <g id="Item" transform="translate(0.000000, 146.000000)">
                                <g id="image" transform="translate(10.000000, 10.000000)">
                                    <g id="Icon" transform="translate(16.000000, 16.000000)">
                                        <g id="folder" transform="translate(0.000000, 6.000000)">
                                            <path d="M19.3412315,-2.27373675e-13 C20.343683,-2.27373675e-13 21.269601,0.543315472 21.7698017,1.4247124 L24.2889821,4.91660288 C24.6224492,5.50420083 25.1927885,6.53199987 26,8 L56,8 C57.1045695,8 58,8.8954305 58,10 L58,48.2087175 L58,48.2087175 C58,50.3025205 56.3270609,52 54.2635279,52 L3.73647212,52 C1.67293911,52 0,50.3025205 0,48.2087175 L0,4 C-7.1463071e-16,1.790861 1.790861,-2.26967863e-13 4,-2.27373675e-13 L19.3412315,-2.27373675e-13 L19.3412315,-2.27373675e-13 Z" id="Path" fill="#FF9B00"></path>
                                            <path d="M16.4880613,16 L55,16 L55,16 L49,36 L9,36 L14.5724087,17.4253042 C14.8261991,16.5793363 15.6048449,16 16.4880613,16 Z" id="Rectangle" fill="#DBE5EB"></path>
                                            <path d="M61.1976519,12 L46.7733257,12 C45.6764398,12 44.6802771,12.6354713 44.2244941,13.626063 L41.5850525,19.3615886 C41.1291328,20.3521802 40.1331068,20.9876515 39.0362209,20.9876515 L7.64939158,20.9993835 C6.69163837,20.9997415 5.86857355,21.6790367 5.68657945,22.6193395 L0.690980462,48.4299343 C0.376141858,50.0566004 1.43958818,51.6305009 3.06625429,51.9453396 C3.25409841,51.9816965 3.44498984,52 3.63632001,52 L55.2635359,52 L55.2635359,52 C57.3270645,52 59,50.3389271 59,48.2900308 L64,14.7824769 C64,13.2458386 62.7452642,12 61.1976519,12 Z" id="Path" fill="#FFC900"></path>
                                        </g>
                                    </g>
                                </g>
                            </g>
                        </g>
                    </g>
                </g>
            </g>
        </g>
    </g>
</svg>