<?xml version="1.0" encoding="UTF-8"?>
<svg width="13px" height="13px" viewBox="0 0 13 13" version="1.1" xmlns="http://www.w3.org/2000/svg" xmlns:xlink="http://www.w3.org/1999/xlink">
    <!-- Generator: Sketch 63.1 (92452) - https://sketch.com -->
    <title>search-icon</title>
    <desc>Created with Sketch.</desc>
    <g id="Page-1" stroke="none" stroke-width="1" fill="none" fill-rule="evenodd">
        <g id="newmade-admin-detailed" transform="translate(-251.000000, -67.000000)" stroke="#C6C8CC" stroke-width="1.5">
            <g id="Container">
                <g id="Sidebar" transform="translate(0.000000, 50.000000)">
                    <g id="Item">
                        <g id="Expand" transform="translate(8.000000, 8.000000)">
                            <g id="search-icon" transform="translate(243.000000, 9.000000)">
                                <path d="M4.87495226,0.749999998 C3.7359127,0.75 2.7046627,1.21170635 1.95818453,1.95818453 C1.21170635,2.7046627 0.75,3.7359127 0.75,4.875 C0.75,6.0140873 1.21170635,7.0453373 1.95818453,7.79181547 C2.7046627,8.53829365 3.7359127,9 4.875,9 C6.0140873,9 7.0453373,8.53829365 7.79181547,7.79181547 C8.53829365,7.0453373 9,6.0140873 9,4.875 C8.9999275,3.73597729 8.53820079,2.70475161 7.79172459,1.95827541 C7.04524839,1.21179921 6.01402271,0.750072502 4.87495226,0.749999998 Z" id="Path"></path>
                                <line x1="8.25" y1="8.25" x2="12" y2="12" id="Path" stroke-linecap="round"></line>
                            </g>
                        </g>
                    </g>
                </g>
            </g>
        </g>
    </g>
</svg>