<?xml version="1.0" encoding="UTF-8"?>
<svg width="64px" height="64px" viewBox="0 0 64 64" version="1.1" xmlns="http://www.w3.org/2000/svg" xmlns:xlink="http://www.w3.org/1999/xlink">
    <!-- Generator: Sketch 63.1 (92452) - https://sketch.com -->
    <title>settings-icon</title>
    <desc>Created with Sketch.</desc>
    <g id="Page-1" stroke="none" stroke-width="1" fill="none" fill-rule="evenodd">
        <g id="Admin---Simplified---Drag`nDrop" transform="translate(-406.000000, -408.000000)" fill-rule="nonzero">
            <g id="Group-5">
                <g id="Basic-Usage" transform="translate(380.000000, 90.000000)">
                    <g id="Blocks">
                        <g id="Items">
                            <g id="Item" transform="translate(0.000000, 292.000000)">
                                <g id="image" transform="translate(10.000000, 10.000000)">
                                    <g id="Icon" transform="translate(16.000000, 16.000000)">
                                        <g id="v2">
                                            <g id="gear" transform="translate(32.000000, 28.000000)">
                                                <path d="M27.1671253,9.25657694 L28.6878712,7.73583104 C29.0262743,7.39742795 29.0622798,6.8634274 28.777885,6.4785578 C27.8295779,5.19403714 26.6929717,4.05743099 25.408451,3.10912385 C25.0235814,2.82472905 24.4895809,2.86073455 24.1511778,3.19913764 L22.6301886,4.72012681 C21.5466176,4.07251435 20.376682,3.58862959 19.1515217,3.28112313 L19.1515217,1.12930771 C19.1515217,0.650775157 18.799495,0.247416179 18.3260713,0.176621621 C17.5490336,0.0603335459 16.7535066,0 15.9436261,0 C15.1337455,0 14.3382185,0.0603335459 13.5611808,0.176621621 C13.0877571,0.247416179 12.7357304,0.650775157 12.7357304,1.12930771 L12.7357304,3.28112313 C11.5103268,3.58862959 10.3403913,4.07275761 9.25682021,4.72012681 L7.73607431,3.19938091 C7.39767122,2.86097782 6.86367067,2.82497232 6.4785578,3.10912385 C5.19403714,4.05767425 4.05767425,5.19403714 3.10912385,6.4785578 C2.82497232,6.86367067 2.86097782,7.39767122 3.19938091,7.73607431 L4.72012681,9.25682021 C4.07275761,10.3406345 3.58862959,11.5103268 3.28112313,12.7357304 L1.12930771,12.7357304 C0.650775157,12.7357304 0.247416179,13.0877571 0.176621621,13.5611808 C0.0603335459,14.3382185 0,15.1337455 0,15.9436261 C0,16.7535066 0.0603335459,17.5490336 0.176621621,18.3260713 C0.247416179,18.799495 0.650775157,19.1515217 1.12930771,19.1515217 L3.28112313,19.1515217 C3.58862959,20.3769253 4.07251435,21.5466176 4.72012681,22.6301886 L3.19913764,24.1511778 C2.86097782,24.4895809 2.82497232,25.0235814 3.10912385,25.408451 C4.05743099,26.6929717 5.19403714,27.8295779 6.4785578,28.777885 C6.86367067,29.0622798 7.39742795,29.0262743 7.73607431,28.6878712 L9.25682021,27.1671253 L15.9436261,29 L25.1785511,25.1785511 L29,15.9436261 L27.1671253,9.25657694 Z M16.5,24 C12.3579247,24 9,20.6420753 9,16.5 C9,12.3579247 12.3579247,9 16.5,9 C20.6420753,9 24,12.3579247 24,16.5 C24,20.6420753 20.6420753,24 16.5,24 Z" id="Shape" fill="#8B9BA9"></path>
                                                <path d="M31.820496,13.3748536 C31.7485461,12.8937037 31.3386044,12.535932 30.8522624,12.535932 L28.6648356,12.535932 C28.3523107,11.2905303 27.8607764,10.1015018 27.2028423,9 C26.3893876,9.81320747 26.1248294,11.0180601 26.4981779,12.1057158 C26.9002075,13.2771895 27.1096288,14.5203659 27.1096288,15.7961795 C27.1096288,18.8215388 25.9337046,21.6636853 23.798695,23.798695 C21.6636853,25.9337046 18.8215388,27.1096288 15.7961795,27.1096288 C14.5203659,27.1096288 13.2771895,26.9002075 12.1057158,26.4981779 C11.0180601,26.1248294 9.81345477,26.3893876 9,27.2028423 C10.1015018,27.8607764 11.2905303,28.3523107 12.535932,28.6648356 L12.535932,30.8522624 C12.535932,31.3386044 12.8937037,31.7487933 13.3748536,31.8207433 C14.1645722,31.9386818 14.973082,32 15.7961795,32 C16.6192769,32 17.4277867,31.9386818 18.2175053,31.820496 C18.6986552,31.7485461 19.0564269,31.3386044 19.0564269,30.8522624 L19.0564269,28.6653301 C20.3018286,28.3528052 21.4908571,27.8607764 22.5923589,27.2028423 L24.1376756,28.7484063 C24.4818486,29.092332 25.0243166,29.1289251 25.4157144,28.8401363 C26.721198,27.8761059 27.8763531,26.721198 28.8401363,25.4157144 C29.1289251,25.0243166 29.092332,24.4816013 28.7484063,24.1376756 L27.2028423,22.5921117 C27.8607764,21.4906099 28.3528052,20.3018286 28.6653301,19.0564269 L30.8522624,19.0564269 C31.3386044,19.0564269 31.7485461,18.6986552 31.820496,18.2175053 C31.9386818,17.4277867 32,16.6192769 32,15.7961795 C32,14.973082 31.9386818,14.1645722 31.820496,13.3748536 L31.820496,13.3748536 Z" id="Path" fill="#6C7A88"></path>
                                                <path d="M16,7 C11.0192628,7 7,11.0183115 7,16 C7,20.9807372 11.0183115,25 16,25 C20.9807372,25 25,20.9816885 25,16 C25,11.0192628 20.9816885,7 16,7 Z M16,21 C13.230371,21 11,18.7705372 11,16 C11,13.230371 13.2294628,11 16,11 C18.769629,11 21,13.2294628 21,16 C21,18.769629 18.7705372,21 16,21 Z" id="Shape" fill="#6C7A88"></path>
                                                <path d="M22.2596329,9 C21.5314599,9.72817305 21.3980069,10.8626474 21.941475,11.7373959 C22.6617251,12.8973724 23.0469809,14.2351212 23.0469809,15.630064 C23.0469809,17.6058618 22.2739934,19.466776 20.8703847,20.8703847 C19.466776,22.2739934 17.6053666,23.0469809 15.6295689,23.0469809 C14.2348736,23.0469809 12.8973724,22.6617251 11.7373959,21.941475 C10.8626474,21.3980069 9.72817305,21.5314599 9,22.2596329 C10.6940361,23.9539166 13.0365201,25 15.6298165,25 C20.8154189,25 25,20.8164093 25,15.6298165 C25,13.0370153 23.9539166,10.6942836 22.2596329,9 L22.2596329,9 Z" id="Path" fill="#596775"></path>
                                            </g>
                                            <g id="gear" transform="translate(0.000000, 20.000000)">
                                                <path d="M27.1671253,9.25657694 L28.6878712,7.73583104 C29.0262743,7.39742795 29.0622798,6.8634274 28.777885,6.4785578 C27.8295779,5.19403714 26.6929717,4.05743099 25.408451,3.10912385 C25.0235814,2.82472905 24.4895809,2.86073455 24.1511778,3.19913764 L22.6301886,4.72012681 C21.5466176,4.07251435 20.376682,3.58862959 19.1515217,3.28112313 L19.1515217,1.12930771 C19.1515217,0.650775157 18.799495,0.247416179 18.3260713,0.176621621 C17.5490336,0.0603335459 16.7535066,0 15.9436261,0 C15.1337455,0 14.3382185,0.0603335459 13.5611808,0.176621621 C13.0877571,0.247416179 12.7357304,0.650775157 12.7357304,1.12930771 L12.7357304,3.28112313 C11.5103268,3.58862959 10.3403913,4.07275761 9.25682021,4.72012681 L7.73607431,3.19938091 C7.39767122,2.86097782 6.86367067,2.82497232 6.4785578,3.10912385 C5.19403714,4.05767425 4.05767425,5.19403714 3.10912385,6.4785578 C2.82497232,6.86367067 2.86097782,7.39767122 3.19938091,7.73607431 L4.72012681,9.25682021 C4.07275761,10.3406345 3.58862959,11.5103268 3.28112313,12.7357304 L1.12930771,12.7357304 C0.650775157,12.7357304 0.247416179,13.0877571 0.176621621,13.5611808 C0.0603335459,14.3382185 -5.3201141e-15,15.1337455 -5.3201141e-15,15.9436261 C-5.3201141e-15,16.7535066 0.0603335459,17.5490336 0.176621621,18.3260713 C0.247416179,18.799495 0.650775157,19.1515217 1.12930771,19.1515217 L3.28112313,19.1515217 C3.58862959,20.3769253 4.07251435,21.5466176 4.72012681,22.6301886 L3.19913764,24.1511778 C2.86097782,24.4895809 2.82497232,25.0235814 3.10912385,25.408451 C4.05743099,26.6929717 5.19403714,27.8295779 6.4785578,28.777885 C6.86367067,29.0622798 7.39742795,29.0262743 7.73607431,28.6878712 L9.25682021,27.1671253 L15.9436261,29 L25.1785511,25.1785511 L29,15.9436261 L27.1671253,9.25657694 Z M16.5,24 C12.3579247,24 9,20.6420753 9,16.5 C9,12.3579247 12.3579247,9 16.5,9 C20.6420753,9 24,12.3579247 24,16.5 C24,20.6420753 20.6420753,24 16.5,24 Z" id="Shape" fill="#8B9BA9"></path>
                                                <path d="M31.820496,13.3748536 C31.7485461,12.8937037 31.3386044,12.535932 30.8522624,12.535932 L28.6648356,12.535932 C28.3523107,11.2905303 27.8607764,10.1015018 27.2028423,9 C26.3893876,9.81320747 26.1248294,11.0180601 26.4981779,12.1057158 C26.9002075,13.2771895 27.1096288,14.5203659 27.1096288,15.7961795 C27.1096288,18.8215388 25.9337046,21.6636853 23.798695,23.798695 C21.6636853,25.9337046 18.8215388,27.1096288 15.7961795,27.1096288 C14.5203659,27.1096288 13.2771895,26.9002075 12.1057158,26.4981779 C11.0180601,26.1248294 9.81345477,26.3893876 9,27.2028423 C10.1015018,27.8607764 11.2905303,28.3523107 12.535932,28.6648356 L12.535932,30.8522624 C12.535932,31.3386044 12.8937037,31.7487933 13.3748536,31.8207433 C14.1645722,31.9386818 14.973082,32 15.7961795,32 C16.6192769,32 17.4277867,31.9386818 18.2175053,31.820496 C18.6986552,31.7485461 19.0564269,31.3386044 19.0564269,30.8522624 L19.0564269,28.6653301 C20.3018286,28.3528052 21.4908571,27.8607764 22.5923589,27.2028423 L24.1376756,28.7484063 C24.4818486,29.092332 25.0243166,29.1289251 25.4157144,28.8401363 C26.721198,27.8761059 27.8763531,26.721198 28.8401363,25.4157144 C29.1289251,25.0243166 29.092332,24.4816013 28.7484063,24.1376756 L27.2028423,22.5921117 C27.8607764,21.4906099 28.3528052,20.3018286 28.6653301,19.0564269 L30.8522624,19.0564269 C31.3386044,19.0564269 31.7485461,18.6986552 31.820496,18.2175053 C31.9386818,17.4277867 32,16.6192769 32,15.7961795 C32,14.973082 31.9386818,14.1645722 31.820496,13.3748536 L31.820496,13.3748536 Z" id="Path" fill="#6C7A88"></path>
                                                <path d="M16,7 C11.0192628,7 7,11.0183115 7,16 C7,20.9807372 11.0183115,25 16,25 C20.9807372,25 25,20.9816885 25,16 C25,11.0192628 20.9816885,7 16,7 Z M16,21 C13.230371,21 11,18.7705372 11,16 C11,13.230371 13.2294628,11 16,11 C18.769629,11 21,13.2294628 21,16 C21,18.769629 18.7705372,21 16,21 Z" id="Shape" fill="#6C7A88"></path>
                                                <path d="M22.2596329,9 C21.5314599,9.72817305 21.3980069,10.8626474 21.941475,11.7373959 C22.6617251,12.8973724 23.0469809,14.2351212 23.0469809,15.630064 C23.0469809,17.6058618 22.2739934,19.466776 20.8703847,20.8703847 C19.466776,22.2739934 17.6053666,23.0469809 15.6295689,23.0469809 C14.2348736,23.0469809 12.8973724,22.6617251 11.7373959,21.941475 C10.8626474,21.3980069 9.72817305,21.5314599 9,22.2596329 C10.6940361,23.9539166 13.0365201,25 15.6298165,25 C20.8154189,25 25,20.8164093 25,15.6298165 C25,13.0370153 23.9539166,10.6942836 22.2596329,9 L22.2596329,9 Z" id="Path" fill="#596775"></path>
                                            </g>
                                            <g id="gear" transform="translate(28.000000, 4.000000)">
                                                <path d="M20.6095433,7.02223079 L21.7632126,5.86856148 C22.0199322,5.6118419 22.0472467,5.20673803 21.831499,4.91476798 C21.1120935,3.94030404 20.2498406,3.0780511 19.2753767,2.35864568 C18.9834066,2.1428979 18.5783027,2.17021242 18.3215832,2.42693201 L17.1677293,3.58078586 C16.3457099,3.08949364 15.4581726,2.72240866 14.5287406,2.48912789 L14.5287406,0.856716194 C14.5287406,0.493691499 14.2616859,0.187695032 13.9025368,0.133988816 C13.31306,0.0457702762 12.7095567,0 12.0951646,0 C11.4807725,0 10.8772692,0.0457702762 10.2877924,0.133988816 C9.92864332,0.187695032 9.66158856,0.493691499 9.66158856,0.856716194 L9.66158856,2.48912789 C8.73197207,2.72240866 7.84443475,3.08967819 7.02241533,3.58078586 L5.86874603,2.42711655 C5.61202644,2.17039697 5.20692257,2.14308245 4.91476798,2.35864568 C3.94030404,3.07823564 3.07823564,3.94030404 2.35864568,4.91476798 C2.14308245,5.20692257 2.17039697,5.61202644 2.42711655,5.86874603 L3.58078586,7.02241533 C3.08967819,7.8446193 2.72240866,8.73197207 2.48912789,9.66158856 L0.856716194,9.66158856 C0.493691499,9.66158856 0.187695032,9.92864332 0.133988816,10.2877924 C0.0457702762,10.8772692 -3.99680289e-15,11.4807725 -3.99680289e-15,12.0951646 C-3.99680289e-15,12.7095567 0.0457702762,13.31306 0.133988816,13.9025368 C0.187695032,14.2616859 0.493691499,14.5287406 0.856716194,14.5287406 L2.48912789,14.5287406 C2.72240866,15.4583571 3.08949364,16.3457099 3.58078586,17.1677293 L2.42693201,18.3215832 C2.17039697,18.5783027 2.14308245,18.9834066 2.35864568,19.2753767 C3.0780511,20.2498406 3.94030404,21.1120935 4.91476798,21.831499 C5.20692257,22.0472467 5.6118419,22.0199322 5.86874603,21.7632126 L7.02241533,20.6095433 L12.0951646,22 L19.1009698,19.1009698 L22,12.0951646 L20.6095433,7.02223079 Z M11.5,17 C8.46247813,17 6,14.5375219 6,11.5 C6,8.46247813 8.46247813,6 11.5,6 C14.5375219,6 17,8.46247813 17,11.5 C17,14.5375219 14.5375219,17 11.5,17 Z" id="Shape" fill="#8B9BA9"></path>
                                                <path d="M23.8673231,10.2335874 C23.8141428,9.87795491 23.5111424,9.61351497 23.1516722,9.61351497 L21.5348785,9.61351497 C21.3038818,8.69300065 20.9405739,7.8141535 20.4542748,7 C19.8530256,7.60106639 19.6574826,8.49160962 19.9334358,9.29552905 C20.2305882,10.161401 20.3853778,11.0802705 20.3853778,12.0232631 C20.3853778,14.2593982 19.5162164,16.3601153 17.9381659,17.9381659 C16.3601153,19.5162164 14.2593982,20.3853778 12.0232631,20.3853778 C11.0802705,20.3853778 10.161401,20.2305882 9.29552905,19.9334358 C8.49160962,19.6574826 7.60124918,19.8530256 7,20.4542748 C7.8141535,20.9405739 8.69300065,21.3038818 9.61351497,21.5348785 L9.61351497,23.1516722 C9.61351497,23.5111424 9.87795491,23.8143255 10.2335874,23.8675059 C10.8172925,23.9546779 11.4148867,24 12.0232631,24 C12.6316395,24 13.2292336,23.9546779 13.8129387,23.8673231 C14.1685712,23.8141428 14.4330112,23.5111424 14.4330112,23.1516722 L14.4330112,21.535244 C15.3535255,21.3042473 16.2323726,20.9405739 17.0465261,20.4542748 L18.1887168,21.5966481 C18.4431055,21.8508541 18.8440601,21.8779012 19.1333541,21.6644486 C20.0982767,20.9519044 20.9520871,20.0982767 21.6644486,19.1333541 C21.8779012,18.8440601 21.8508541,18.4429227 21.5966481,18.1887168 L20.4542748,17.0463434 C20.9405739,16.2321899 21.3042473,15.3535255 21.535244,14.4330112 L23.1516722,14.4330112 C23.5111424,14.4330112 23.8141428,14.1685712 23.8673231,13.8129387 C23.9546779,13.2292336 24,12.6316395 24,12.0232631 C24,11.4148867 23.9546779,10.8172925 23.8673231,10.2335874 L23.8673231,10.2335874 Z" id="Path" fill="#6C7A88"></path>
                                                <path d="M12,5 C8.12609327,5 5,8.12535341 5,12 C5,15.8739067 8.12535341,19 12,19 C15.8739067,19 19,15.8746466 19,12 C19,8.12609327 15.8746466,5 12,5 Z M12,16 C9.78429678,16 8,14.2164298 8,12 C8,9.78429678 9.78357025,8 12,8 C14.2157032,8 16,9.78357025 16,12 C16,14.2157032 14.2164298,16 12,16 Z" id="Shape" fill="#6C7A88"></path>
                                                <path d="M16.9447247,7 C16.3985949,7.54612979 16.2985051,8.39698551 16.7061063,9.05304695 C17.2462938,9.9230293 17.5352357,10.9263409 17.5352357,11.972548 C17.5352357,13.4543963 16.9554951,14.850082 15.9027886,15.9027886 C14.850082,16.9554951 13.454025,17.5352357 11.9721767,17.5352357 C10.9261552,17.5352357 9.9230293,17.2462938 9.05304695,16.7061063 C8.39698551,16.2985051 7.54612979,16.3985949 7,16.9447247 C8.27052704,18.2154375 10.0273901,19 11.9723624,19 C15.8615642,19 19,15.862307 19,11.9723624 C19,10.0277614 18.2154375,8.27071273 16.9447247,7 L16.9447247,7 Z" id="Path" fill="#596775"></path>
                                            </g>
                                        </g>
                                    </g>
                                </g>
                            </g>
                        </g>
                    </g>
                </g>
            </g>
        </g>
    </g>
</svg>