<?xml version="1.0" encoding="UTF-8"?>
<svg width="64px" height="64px" viewBox="0 0 64 64" version="1.1" xmlns="http://www.w3.org/2000/svg" xmlns:xlink="http://www.w3.org/1999/xlink">
    <!-- Generator: Sketch 63.1 (92452) - https://sketch.com -->
    <title>tools-icon</title>
    <desc>Created with Sketch.</desc>
    <g id="Page-1" stroke="none" stroke-width="1" fill="none" fill-rule="evenodd">
        <g id="Admin---Simplified" transform="translate(-839.000000, -408.000000)">
            <g id="Group-5">
                <g id="Basic-Usage" transform="translate(420.000000, 100.000000)">
                    <g id="Blocks">
                        <g id="Items">
                            <g id="Item" transform="translate(403.000000, 292.000000)">
                                <g id="image">
                                    <rect id="Mask" fill-opacity="0" fill="#FFFFFF" x="0" y="0" width="96" height="96"></rect>
                                    <g id="tool-box" transform="translate(16.000000, 24.000000)" fill-rule="nonzero">
                                        <path d="M58.6059829,48 L5.39401709,48 C3.51957034,48 2,46.4888769 2,44.6248501 L2,19 L62,19 L62,44.6249734 C62,46.4888769 60.4804297,48 58.6059829,48 Z" id="Path" fill="#D81942"></path>
                                        <g id="Group" transform="translate(2.000000, 19.000000)" fill="#BC0C3A">
                                            <path d="M56.3382757,-2.48689958e-14 L56.3382757,22.3929155 C56.3382757,24.0307839 55.0030873,25.358662 53.3559251,25.358662 L7.10542736e-15,25.358662 L7.10542736e-15,25.6248788 C7.10542736e-15,27.4888897 1.51957034,29 3.39401709,29 L56.6059829,29 C58.4804297,29 60,27.4888897 60,25.6248788 L60,-2.48689958e-14 L56.3382757,-2.48689958e-14 Z" id="Path"></path>
                                            <rect id="Rectangle" x="4.36537959e-13" y="-1.27925448e-13" width="57" height="5"></rect>
                                        </g>
                                        <path d="M23.3505155,11 L23.3505155,3.48338358 C23.3505155,3.41215568 23.4082354,3.35436938 23.4793814,3.35436938 L41.5206186,3.35436938 C41.5917646,3.35436938 41.6494845,3.41215568 41.6494845,3.48338358 L41.6494845,11 L45,10.9685944 L45,3.48338358 C45,1.55960212 43.4421897,6.3962724e-14 41.5206186,6.3962724e-14 L23.4793814,6.3962724e-14 C21.5578103,6.3962724e-14 20,1.55960212 20,3.48338358 L20,11 L23.3505155,11 Z" id="Path" fill="#CCCCCC"></path>
                                        <path d="M62.997125,21 L1.002875,21 C0.449,21 0,20.5326513 0,19.9561417 L0,13.5613224 C0,11.5944763 1.531875,10 3.4215,10 L60.5785,10 C62.468125,10 64,11.5944763 64,13.5613224 L64,19.9561417 C64,20.5327814 63.551,21 62.997125,21 Z" id="Path" fill="#FF395A"></path>
                                        <path d="M60.6327962,10 L57,10 C58.8596383,10 60.3672038,11.5944763 60.3672038,13.5613224 L60.3672038,19.9561417 C60.3672038,20.5326513 59.9253291,21 59.3802436,21 L63.0130397,21 C63.5581252,21 64,20.5326513 64,19.9561417 L64,13.5613224 C64,11.5944763 62.4924345,10 60.6327962,10 Z" id="Path" fill="#D81942"></path>
                                        <g id="Group" transform="translate(12.000000, 17.000000)" fill="#FFA227">
                                            <path d="M5.58589521,10 L1.41410479,10 C0.633089798,10 4.93868835e-13,9.3968167 4.93868835e-13,8.65269604 L4.93868835e-13,1.34730396 C4.93868835e-13,0.603183302 0.633089798,6.75154377e-14 1.41410479,6.75154377e-14 L5.58589521,6.75154377e-14 C6.3669102,6.75154377e-14 7,0.603183302 7,1.34730396 L7,8.65269604 C7,9.39693583 6.3669102,10 5.58589521,10 Z" id="Path"></path>
                                            <path d="M38.5858952,10 L34.4141048,10 C33.6330898,10 33,9.3968167 33,8.65269604 L33,1.34730396 C33,0.603183302 33.6330898,6.75154377e-14 34.4141048,6.75154377e-14 L38.5858952,6.75154377e-14 C39.3669102,6.75154377e-14 40,0.603183302 40,1.34730396 L40,8.65269604 C40.000125,9.39693583 39.3669102,10 38.5858952,10 Z" id="Path"></path>
                                        </g>
                                        <g id="Group" transform="translate(15.000000, 17.000000)" fill="#F78B0B">
                                            <path d="M35.4681341,6.75154377e-14 L33,6.75154377e-14 L33,10 L35.4681341,10 C36.314189,10 37,9.39682388 37,8.65271209 L37,1.34740705 C37,0.603176116 36.314189,6.75154377e-14 35.4681341,6.75154377e-14 Z" id="Path"></path>
                                            <path d="M2.4681341,6.75154377e-14 L3.7658765e-13,6.75154377e-14 L3.7658765e-13,10 L2.4681341,10 C3.31418896,10 4,9.39682388 4,8.65271209 L4,1.34740705 C4,0.603176116 3.31418896,6.75154377e-14 2.4681341,6.75154377e-14 Z" id="Path"></path>
                                        </g>
                                    </g>
                                </g>
                            </g>
                        </g>
                    </g>
                </g>
            </g>
        </g>
    </g>
</svg>